# xmcd
#
# Track frame offsets: 
#        150
#        10975
#        22412
#        32812
#        44325
#        59437
#        70437
#        79437
#        91087
#        102762
#        115887
#        129875
#        140500
#        150225
#        162475
#        174987
#
# Disc length: 2486 seconds
#
# Revision: 0
# Processed by: cddbd v1.5.2PL0 Copyright (c) Steve Scherf et al.
# Submitted via: ExactAudioCopy v0.99pb4
#
DISCID=d309b410
DTITLE=Jim Reeves - [1996] Greatest
DYEAR=1996
DGENRE=Country
TTITLE0=He'll Have To Go
TTITLE1=Adios Amigo
TTITLE2=Am I Losing You
TTITLE3=I Missed Me
TTITLE4=The Blizzard
TTITLE5=My Lips Are Sealed
TTITLE6=I Won't Forget You
TTITLE7=Yonder Comes A Sucker
TTITLE8=Welcome To My World
TTITLE9=You'll Never Know
TTITLE10=I Fall To Pieces
TTITLE11=You're The Only Good Thing (That Happened To Me)
TTITLE12=When Two Worlds Collide
TTITLE13=Blue Skies
TTITLE14=I Love You Because
TTITLE15=You Belong To Me
EXTD=
EXTT0=
EXTT1=
EXTT2=
EXTT3=
EXTT4=
EXTT5=
EXTT6=
EXTT7=
EXTT8=
EXTT9=
EXTT10=
EXTT11=
EXTT12=
EXTT13=
EXTT14=
EXTT15=
PLAYORDER=
